<svg xmlns="http://www.w3.org/2000/svg" width="97.253" height="263.445" viewBox="0 0 97.253 263.445">
  <g id="Groupe_1" data-name="Groupe 1" transform="translate(-167.29 397.995)">
    <path id="path164" d="M264.543-147.67c0,7.245-7.1,13.12-15.856,13.12H183.145c-8.756,0-15.855-5.875-15.855-13.12V-306.21c0-7.244,7.1-13.12,15.855-13.12h65.543c8.756,0,15.856,5.876,15.856,13.12v158.54" fill="#c07b19"/>
    <path id="path166" d="M255.734-155.7c0,6.556-5.813,11.867-12.983,11.867H189.081c-7.168,0-12.981-5.311-12.981-11.867V-299.087c0-6.552,5.813-11.864,12.981-11.864h53.671c7.169,0,12.983,5.312,12.983,11.864V-155.7" fill="#f9a61b"/>
    <path id="path168" d="M261.161-333.257c0,7.693-5.361,13.927-11.977,13.927H182.634c-6.616,0-11.98-6.233-11.98-13.927v-.52c0-7.691,5.364-13.928,11.98-13.928h66.549c6.616,0,11.977,6.237,11.977,13.928v.52" fill="#eaac8e"/>
    <path id="path170" d="M191.685-336.486h24.233V-398H208.2l-16.515,61.509" fill="#eaac8e"/>
    <path id="path172" d="M223.637-398h-7.719v61.509h24.233L223.637-398" fill="#eaac8e"/>
    <path id="path174" d="M197.808-340.964h18.111v-53.384H210.6l-12.795,53.384" fill="#fcdbc9"/>
    <path id="path176" d="M221.234-394.348h-5.316v53.384H233.4l-12.168-53.384" fill="#fcdbc9"/>
    <path id="path178" d="M255.734-333.325A10.432,10.432,0,0,1,245.2-323H186.64a10.433,10.433,0,0,1-10.54-10.325v-.385a10.434,10.434,0,0,1,10.54-10.325H245.2a10.433,10.433,0,0,1,10.537,10.325v.385" fill="#fcdbc9"/>
    <path id="path180" d="M195.93-344.035h40.317l-5.085-14.051H199.684l-3.753,14.051" fill="#eaac8e"/>
    <path id="path182" d="M176.1-256.991v76.645a19.8,19.8,0,0,0,3.849.387h75.785v-77.418H179.949a19.8,19.8,0,0,0-3.849.387" fill="#fcdbc9"/>
    <path id="path184" d="M188.721-219.97a26.66,26.66,0,0,1,26.66-26.661,26.66,26.66,0,0,1,26.66,26.661,26.66,26.66,0,0,1-26.66,26.66,26.66,26.66,0,0,1-26.66-26.66" fill="#f9a61b"/>
    <path id="path186" d="M237.141-347.7h0L223.637-398l13.5,50.291" fill="#dbc9c1"/>
    <path id="path188" d="M248.687-134.55H215.381v-9.284h27.371c7.169,0,12.983-5.311,12.983-11.867V-299.087c0-6.552-5.813-11.864-12.983-11.864H215.381v-8.379h33.307c8.756,0,15.856,5.876,15.856,13.12v158.54c0,7.245-7.1,13.12-15.856,13.12" fill="#a4621a"/>
    <path id="path190" d="M242.751-143.834H215.381V-179.96h40.353V-155.7c0,6.556-5.813,11.867-12.983,11.867m12.983-113.544H215.381v-53.573h27.371c7.169,0,12.983,5.312,12.983,11.864v41.709" fill="#e08b15"/>
    <path id="path192" d="M249.183-319.33h-33.8V-323H245.2a10.432,10.432,0,0,0,10.537-10.325v-.385A10.433,10.433,0,0,0,245.2-344.035h-7.072l-.985-3.669h12.044c6.616,0,11.977,6.237,11.977,13.928v.52c0,7.693-5.361,13.927-11.977,13.927" fill="#c78a70"/>
    <path id="path194" d="M238.125-344.035h-1.877l-5.085-14.051H229.5l-8.265-36.263h-5.316V-398h7.719l13.5,50.291.985,3.669" fill="#c78a70"/>
    <path id="path196" d="M229.5-358.086H215.918v-36.263h5.316l8.265,36.263" fill="#d8ae9c"/>
    <path id="path198" d="M245.2-323H215.381v-21.036H245.2a10.433,10.433,0,0,1,10.537,10.325v.385A10.432,10.432,0,0,1,245.2-323" fill="#d8ae9c"/>
    <path id="path200" d="M215.381-394.348h.538v-3.646h-.538Z" fill="#c78a70"/>
    <path id="path202" d="M215.381-358.086h.538v-36.263h-.538Z" fill="#d8ae9c"/>
    <path id="path204" d="M236.247-344.035H215.381v-14.051h15.781l5.085,14.051" fill="#c78a70"/>
    <path id="path206" d="M255.734-179.96H215.381V-193.31a26.66,26.66,0,0,0,26.66-26.66,26.66,26.66,0,0,0-26.66-26.661v-10.747h40.353v77.418" fill="#d8ae9c"/>
    <path id="path208" d="M215.381-193.31v-53.321a26.66,26.66,0,0,1,26.66,26.661,26.66,26.66,0,0,1-26.66,26.66" fill="#e08b15"/>
  </g>
</svg>
