<?xml version="1.0" encoding="utf-8"?><!-- Uploaded to: SVG Repo, www.svgrepo.com, Generator: SVG Repo Mixer Tools -->
<svg fill="#000000" width="800px" height="800px" viewBox="0 0 24 24" id="toilet" data-name="Flat Color" xmlns="http://www.w3.org/2000/svg" class="icon flat-color"><path id="secondary" d="M10,12a1,1,0,0,1-.77-.36,1,1,0,0,1,.13-1.41l6-5a1,1,0,0,1,1.28,1.54l-6,5A1,1,0,0,1,10,12Z" style="fill: rgb(44, 169, 188);"></path><path id="primary" d="M18,20.84a1,1,0,0,1-.23.81A1,1,0,0,1,17,22H7a1,1,0,0,1-.76-.35A1,1,0,0,1,6,20.84l1-6A1,1,0,0,1,8,14h8a1,1,0,0,1,1,.84ZM9,2H7A2,2,0,0,0,5,4v7a1,1,0,0,0,1,1h4a1,1,0,0,0,1-1V4A2,2,0,0,0,9,2Z" style="fill: rgb(0, 0, 0);"></path><path id="secondary-2" data-name="secondary" d="M18,11H5v2a3,3,0,0,0,3,3h8a3,3,0,0,0,3-3V12A1,1,0,0,0,18,11Z" style="fill: rgb(44, 169, 188);"></path></svg>